<?xml version="1.0" encoding="utf-8"?>
<!-- Generator: Adobe Illustrator 25.0.0, SVG Export Plug-In . SVG Version: 6.00 Build 0)  -->
<svg version="1.1" id="Layer_1" xmlns="http://www.w3.org/2000/svg" xmlns:xlink="http://www.w3.org/1999/xlink" x="0px" y="0px"
	 viewBox="0 0 170 52" style="enable-background:new 0 0 170 52;" xml:space="preserve">
<style type="text/css">
	.st0{fill:#FFFFFF;}
	.st1{fill:url(#SVGID_1_);}
	.st2{fill:url(#SVGID_2_);}
	.st3{fill:#57595B;}
	.st4{fill:url(#SVGID_3_);}
	.st5{fill:none;stroke:#FFFFFF;stroke-width:10;stroke-miterlimit:10;}
	.st6{fill:#FF0000;}
	.st7{fill:#FFA500;}
	.st8{fill:#FFCC33;}
	.st9{fill:#505052;}
	.st10{fill:url(#SVGID_4_);}
	.st11{fill:url(#SVGID_5_);}
</style>
<g>
	<path class="st9" d="M33,23.7c-0.2-0.9-0.6-1.5-1.2-2c-0.6-0.5-1.4-0.7-2.4-0.7c-1.3,0-2.3,0.5-3.1,1.4c-0.8,0.9-1.2,2.2-1.2,3.7
		c0,1.8,0.4,3.2,1.1,4c0.7,0.9,1.8,1.3,3.2,1.3c0.9,0,1.7-0.3,2.4-0.9c0.7-0.6,1.1-1.5,1.3-2.6h1.7c-0.2,1.7-0.9,2.9-1.9,3.8
		c-1,0.9-2.3,1.3-3.8,1.3c-1.8,0-3.2-0.6-4.2-1.8c-1.1-1.2-1.6-2.9-1.6-5c0-2.1,0.6-3.7,1.7-4.9c1.1-1.2,2.6-1.8,4.4-1.8
		c1.5,0,2.7,0.4,3.6,1.2c0.9,0.8,1.5,1.8,1.7,3.1H33z"/>
	<path class="st9" d="M36.2,28c0-1.4,0.4-2.6,1.2-3.5s1.8-1.4,3.2-1.4c1.4,0,2.4,0.5,3.2,1.4c0.8,1,1.2,2.1,1.2,3.5
		c0,1.4-0.4,2.6-1.1,3.5c-0.8,1-1.8,1.5-3.2,1.5c-1.3,0-2.4-0.5-3.2-1.4C36.6,30.7,36.2,29.5,36.2,28z M37.8,28c0,1,0.2,1.9,0.7,2.6
		c0.5,0.7,1.1,1,2,1c0.9,0,1.6-0.4,2.1-1.1c0.5-0.7,0.7-1.6,0.7-2.5c0-1-0.2-1.8-0.7-2.5c-0.5-0.7-1.2-1-2.1-1c-0.8,0-1.5,0.3-2,1
		C38.1,26.1,37.8,27,37.8,28z"/>
	<path class="st9" d="M54.6,32.7h-1.5v-1.3h0c-0.6,1-1.5,1.6-2.7,1.6c-1.3,0-2.3-0.5-3-1.5c-0.7-1-1.1-2.2-1.1-3.8
		c0-1.4,0.4-2.5,1.1-3.4c0.7-0.9,1.7-1.3,2.8-1.3c1.2,0,2.1,0.5,2.8,1.6l0-0.1v-4.7h1.6V32.7z M47.9,28c0,1.2,0.2,2.1,0.7,2.7
		c0.5,0.6,1.1,0.9,1.8,0.9c0.7,0,1.3-0.3,1.8-0.8c0.5-0.5,0.7-1.3,0.7-2.3c0-1.3-0.2-2.3-0.6-3c-0.4-0.7-1.1-1-1.9-1
		c-0.8,0-1.4,0.3-1.9,0.8C48.1,25.8,47.9,26.7,47.9,28z"/>
	<path class="st9" d="M64.9,29.8c-0.2,1-0.7,1.8-1.4,2.4c-0.7,0.5-1.6,0.8-2.7,0.8c-1.3,0-2.4-0.4-3.1-1.3c-0.8-0.8-1.2-2-1.2-3.4
		c0-1.6,0.4-2.9,1.2-3.8c0.8-0.9,1.9-1.4,3.3-1.4c1.3,0,2.3,0.5,3,1.4c0.7,0.9,1.1,2.3,1.1,4.1h-6.9c0,1,0.2,1.7,0.7,2.3
		c0.5,0.5,1.1,0.8,2.1,0.8c0.6,0,1.2-0.2,1.7-0.6c0.5-0.4,0.7-0.8,0.8-1.3H64.9z M63.4,27.3c-0.1-1-0.4-1.7-0.8-2.2
		c-0.5-0.4-1.1-0.6-1.8-0.6c-0.8,0-1.4,0.3-1.9,0.8c-0.5,0.5-0.7,1.2-0.7,2H63.4z"/>
	<path class="st9" d="M72.2,26c0-0.6-0.2-1-0.6-1.2c-0.4-0.2-0.9-0.4-1.6-0.4c-0.5,0-1,0.1-1.3,0.3c-0.4,0.2-0.5,0.6-0.5,1
		c0,0.3,0.1,0.6,0.3,0.7c0.2,0.2,0.7,0.3,1.4,0.5l1.6,0.4c0.9,0.2,1.6,0.5,2,0.9c0.4,0.4,0.6,0.9,0.6,1.6c0,0.9-0.3,1.7-1,2.2
		c-0.7,0.6-1.6,0.9-2.7,0.9c-1.3,0-2.3-0.3-3-0.8c-0.7-0.5-1-1.4-1-2.5h1.5c0,0.6,0.2,1.1,0.6,1.4c0.4,0.3,1,0.5,1.8,0.5
		c0.7,0,1.2-0.1,1.6-0.4c0.4-0.3,0.6-0.6,0.6-1.1c0-0.3-0.1-0.6-0.4-0.8c-0.3-0.2-0.7-0.4-1.5-0.6l-1.8-0.4
		c-0.7-0.2-1.3-0.5-1.6-0.8c-0.4-0.4-0.5-0.9-0.5-1.4c0-0.9,0.3-1.7,1-2.2c0.7-0.5,1.5-0.8,2.6-0.8c1.1,0,2,0.3,2.6,0.8
		c0.6,0.6,0.9,1.3,1,2.1H72.2z"/>
	<path class="st9" d="M75.9,21.6v-1.8h1.6v1.8H75.9z M77.5,32.7h-1.6v-9.4h1.6V32.7z"/>
	<path class="st9" d="M87.6,32.2c0,1.5-0.4,2.6-1.1,3.4c-0.7,0.7-1.8,1.1-3.3,1.1c-1.1,0-1.9-0.2-2.5-0.7c-0.6-0.5-1-1.2-1.1-2.1
		h1.6c0.1,0.5,0.3,0.8,0.6,1.1c0.3,0.3,0.8,0.4,1.5,0.4c0.9,0,1.5-0.2,2-0.7c0.4-0.5,0.7-1.2,0.7-2.3v-0.7h0
		c-0.6,0.9-1.4,1.3-2.5,1.3c-1.3,0-2.4-0.5-3.1-1.5c-0.7-1-1.1-2.2-1.1-3.8c0-1.4,0.4-2.5,1.1-3.4c0.7-0.9,1.7-1.3,2.8-1.3
		c1.2,0,2.1,0.5,2.8,1.6h0v-1.3h1.5V32.2z M81,28c0,1.2,0.2,2,0.7,2.7c0.5,0.6,1.1,1,1.8,1c0.8,0,1.4-0.3,1.8-0.8
		c0.5-0.5,0.7-1.3,0.7-2.3c0-1.3-0.2-2.3-0.6-3c-0.4-0.7-1.1-1-1.9-1c-0.9,0-1.5,0.3-1.9,0.9C81.2,25.9,81,26.8,81,28z"/>
	<path class="st9" d="M97.5,32.7H96V27c0-0.9-0.2-1.5-0.5-1.9c-0.3-0.4-0.8-0.6-1.5-0.6c-0.7,0-1.3,0.3-1.8,0.8s-0.7,1.3-0.7,2.3
		v5.1h-1.6v-9.4h1.5v1.3h0c0.7-1.1,1.7-1.6,2.8-1.6c1.1,0,1.9,0.3,2.4,0.8c0.6,0.6,0.8,1.4,0.8,2.4V32.7z"/>
	<path class="st9" d="M112,23.6c0-0.8-0.3-1.5-0.9-1.9c-0.6-0.5-1.3-0.7-2.3-0.7c-0.9,0-1.7,0.2-2.2,0.6c-0.5,0.4-0.8,0.9-0.8,1.7
		c0,0.4,0.1,0.7,0.3,1c0.2,0.3,0.6,0.5,1.2,0.6l3.7,0.8c1,0.2,1.7,0.6,2.2,1.2c0.5,0.6,0.7,1.3,0.7,2.2c0,1.3-0.5,2.2-1.4,2.9
		c-0.9,0.7-2.1,1-3.6,1c-1.1,0-2-0.1-2.7-0.4c-0.7-0.3-1.2-0.8-1.7-1.4c-0.5-0.6-0.8-1.5-0.8-2.7h1.6c0,1,0.3,1.7,1,2.2
		c0.6,0.5,1.5,0.8,2.6,0.8c1.1,0,1.9-0.2,2.5-0.6c0.6-0.4,0.9-0.9,0.9-1.6c0-0.6-0.2-1.1-0.5-1.4c-0.4-0.3-1-0.6-2.1-0.8l-2.8-0.6
		c-0.9-0.2-1.6-0.6-2.1-1.1c-0.5-0.5-0.7-1.2-0.7-1.9c0-1.2,0.4-2.1,1.2-2.9c0.8-0.7,1.9-1.1,3.3-1.1c1.6,0,2.8,0.3,3.7,1
		c0.9,0.7,1.3,1.7,1.4,3.1H112z"/>
	<path class="st9" d="M115.6,28c0-1.4,0.4-2.6,1.2-3.5s1.8-1.4,3.2-1.4c1.4,0,2.4,0.5,3.2,1.4c0.8,1,1.2,2.1,1.2,3.5
		c0,1.4-0.4,2.6-1.1,3.5c-0.8,1-1.8,1.5-3.2,1.5c-1.3,0-2.4-0.5-3.2-1.4C115.9,30.7,115.6,29.5,115.6,28z M117.2,28
		c0,1,0.2,1.9,0.7,2.6c0.5,0.7,1.1,1,2,1c0.9,0,1.6-0.4,2.1-1.1c0.5-0.7,0.7-1.6,0.7-2.5c0-1-0.2-1.8-0.7-2.5c-0.5-0.7-1.2-1-2.1-1
		c-0.8,0-1.5,0.3-2,1C117.4,26.1,117.2,27,117.2,28z"/>
	<path class="st9" d="M127.7,32.7h-1.6V19.9h1.6V32.7z"/>
	<path class="st9" d="M130,23.4h1.6v6.2c0,0.7,0.2,1.2,0.5,1.5c0.3,0.3,0.8,0.5,1.3,0.5c0.8,0,1.4-0.3,1.9-0.9
		c0.5-0.6,0.7-1.3,0.7-2.3v-5.2h1.6v9.4H136v-1.4l0,0c-0.6,1.1-1.6,1.7-3,1.7c-0.9,0-1.6-0.2-2.2-0.7c-0.6-0.5-0.9-1.2-0.9-2.2V23.4
		z"/>
	<path class="st9" d="M141.8,24.7v6.1c0,0.2,0.1,0.4,0.2,0.5c0.1,0.1,0.4,0.2,0.7,0.2h0.6v1.2c-0.6,0.1-1,0.1-1.2,0.1
		c-0.7,0-1.1-0.2-1.4-0.5c-0.3-0.3-0.5-0.8-0.5-1.5v-6.2h-1.3v-1.3h1.3v-2.6h1.6v2.6h1.5v1.3H141.8z"/>
	<path class="st9" d="M144.9,21.6v-1.8h1.6v1.8H144.9z M146.4,32.7h-1.6v-9.4h1.6V32.7z"/>
	<path class="st9" d="M148.3,28c0-1.4,0.4-2.6,1.2-3.5s1.8-1.4,3.2-1.4c1.4,0,2.4,0.5,3.2,1.4c0.8,1,1.2,2.1,1.2,3.5
		c0,1.4-0.4,2.6-1.1,3.5c-0.8,1-1.8,1.5-3.2,1.5c-1.3,0-2.4-0.5-3.2-1.4C148.7,30.7,148.3,29.5,148.3,28z M149.9,28
		c0,1,0.2,1.9,0.7,2.6c0.5,0.7,1.1,1,2,1c0.9,0,1.6-0.4,2.1-1.1c0.5-0.7,0.7-1.6,0.7-2.5c0-1-0.2-1.8-0.7-2.5c-0.5-0.7-1.2-1-2.1-1
		c-0.8,0-1.5,0.3-2,1C150.2,26.1,149.9,27,149.9,28z"/>
	<path class="st9" d="M166.5,32.7h-1.6V27c0-0.9-0.2-1.5-0.5-1.9c-0.3-0.4-0.8-0.6-1.5-0.6c-0.7,0-1.3,0.3-1.8,0.8s-0.7,1.3-0.7,2.3
		v5.1h-1.6v-9.4h1.5v1.3h0c0.7-1.1,1.7-1.6,2.8-1.6c1.1,0,1.9,0.3,2.4,0.8c0.6,0.6,0.8,1.4,0.8,2.4V32.7z"/>
</g>
<g>
	<linearGradient id="SVGID_1_" gradientUnits="userSpaceOnUse" x1="22.1448" y1="2.3348" x2="22.1448" y2="49.8743">
		<stop  offset="0" style="stop-color:#FFBF00"/>
		<stop  offset="0.5578" style="stop-color:#FF5400"/>
		<stop  offset="1" style="stop-color:#FF006F"/>
	</linearGradient>
	<path class="st1" d="M10.7,38.8c-1.2,0-2.2,1-2.2,2.2c0,1.2,1,2.2,2.2,2.2c1.2,0,2.2-1,2.2-2.2C12.9,39.8,11.9,38.8,10.7,38.8z
		 M15.8,9.1c1.1,0,2-0.9,2-2c0-1.1-0.9-2-2-2c-1.1,0-2,0.9-2,2C13.7,8.2,14.6,9.1,15.8,9.1z M15.8,43.1c-1.1,0-2,0.9-2,2
		c0,1.1,0.9,2,2,2c1.1,0,2-0.9,2-2C17.8,44,16.9,43.1,15.8,43.1z M9.4,35.6c0-1.2-1-2.3-2.3-2.3c-1.2,0-2.3,1-2.3,2.3
		c0,1.2,1,2.3,2.3,2.3C8.4,37.9,9.4,36.9,9.4,35.6z M21.8,6.5c1,0,1.9-0.8,1.9-1.9s-0.8-1.9-1.9-1.9c-1,0-1.9,0.8-1.9,1.9
		S20.7,6.5,21.8,6.5z M7.1,18.9c1.2,0,2.3-1,2.3-2.3c0-1.2-1-2.3-2.3-2.3c-1.2,0-2.3,1-2.3,2.3C4.8,17.9,5.9,18.9,7.1,18.9z
		 M7.5,29.4c0-1.3-1-2.3-2.3-2.3c-1.3,0-2.3,1-2.3,2.3s1,2.3,2.3,2.3C6.5,31.7,7.5,30.6,7.5,29.4z M10.7,13.4c1.2,0,2.2-1,2.2-2.2
		S11.9,9,10.7,9c-1.2,0-2.2,1-2.2,2.2S9.5,13.4,10.7,13.4z M5.2,25.2c1.3,0,2.3-1,2.3-2.3c0-1.3-1-2.3-2.3-2.3s-2.3,1-2.3,2.3
		C2.9,24.1,3.9,25.2,5.2,25.2z M34.6,6.6C35.4,6.6,36,6,36,5.2c0-0.7-0.6-1.3-1.3-1.3s-1.3,0.6-1.3,1.3C33.3,6,33.9,6.6,34.6,6.6z
		 M40.4,42.9c-0.5,0-1,0.4-1,1c0,0.5,0.4,1,1,1c0.5,0,1-0.4,1-1C41.4,43.3,40.9,42.9,40.4,42.9z M40.4,9.3c0.5,0,1-0.4,1-1
		c0-0.5-0.4-1-1-1c-0.5,0-1,0.4-1,1C39.4,8.9,39.8,9.3,40.4,9.3z M34.7,45.6c-0.7,0-1.3,0.6-1.3,1.3c0,0.7,0.6,1.3,1.3,1.3
		c0.7,0,1.3-0.6,1.3-1.3C36,46.2,35.4,45.6,34.7,45.6z M28.3,5.6c0.9,0,1.6-0.7,1.6-1.6s-0.7-1.6-1.6-1.6c-0.9,0-1.6,0.7-1.6,1.6
		S27.4,5.6,28.3,5.6z M21.8,45.8c-1,0-1.9,0.8-1.9,1.9c0,1,0.8,1.9,1.9,1.9c1,0,1.9-0.8,1.9-1.9C23.7,46.6,22.8,45.8,21.8,45.8z
		 M28.3,46.6c-0.9,0-1.6,0.7-1.6,1.6c0,0.9,0.7,1.6,1.6,1.6c0.9,0,1.6-0.7,1.6-1.6C29.9,47.3,29.2,46.6,28.3,46.6z"/>
	<linearGradient id="SVGID_2_" gradientUnits="userSpaceOnUse" x1="10.0543" y1="26.1044" x2="31.113" y2="26.1044">
		<stop  offset="0" style="stop-color:#9635EE"/>
		<stop  offset="1" style="stop-color:#0087FF"/>
	</linearGradient>
	<path class="st2" d="M14.7,26.1c0-1.3-1-2.3-2.3-2.3c-1.3,0-2.3,1-2.3,2.3c0,1.3,1,2.3,2.3,2.3C13.6,28.4,14.7,27.4,14.7,26.1z
		 M17.6,35.3c-1.2,0-2.1,0.9-2.1,2.1c0,1.2,0.9,2.1,2.1,2.1c1.2,0,2.1-0.9,2.1-2.1C19.7,36.3,18.8,35.3,17.6,35.3z M13.7,30.1
		c-1.2,0-2.2,1-2.2,2.2s1,2.2,2.2,2.2c1.2,0,2.2-1,2.2-2.2S15,30.1,13.7,30.1z M13.7,22.1c1.2,0,2.3-1,2.3-2.3c0-1.2-1-2.3-2.3-2.3
		c-1.2,0-2.3,1-2.3,2.3C11.5,21.1,12.5,22.1,13.7,22.1z M17.6,12.7c-1.2,0-2.1,0.9-2.1,2.1s0.9,2.1,2.1,2.1c1.2,0,2.1-0.9,2.1-2.1
		S18.8,12.7,17.6,12.7z M23.3,38.6c-1,0-1.8,0.8-1.8,1.8c0,1,0.8,1.8,1.8,1.8s1.8-0.8,1.8-1.8C25.1,39.4,24.3,38.6,23.3,38.6z
		 M29.7,10.2c-0.8,0-1.4,0.6-1.4,1.4c0,0.8,0.6,1.4,1.4,1.4s1.4-0.6,1.4-1.4C31.1,10.8,30.5,10.2,29.7,10.2z M29.7,39.3
		c-0.8,0-1.4,0.6-1.4,1.4c0,0.8,0.6,1.4,1.4,1.4c0.8,0,1.4-0.6,1.4-1.4C31.1,39.9,30.5,39.3,29.7,39.3z M23.3,10
		c-1,0-1.8,0.8-1.8,1.8s0.8,1.8,1.8,1.8c1,0,1.8-0.8,1.8-1.8S24.3,10,23.3,10z"/>
</g>
</svg>
