<?xml version="1.0" encoding="utf-8"?>
<!-- Generator: Adobe Illustrator 25.0.0, SVG Export Plug-In . SVG Version: 6.00 Build 0)  -->
<svg version="1.1" id="Layer_1" xmlns="http://www.w3.org/2000/svg" xmlns:xlink="http://www.w3.org/1999/xlink" x="0px" y="0px"
	 viewBox="0 0 179 90" style="enable-background:new 0 0 179 90;" xml:space="preserve">
<style type="text/css">
	.st0{fill:#FFFFFF;}
	.st1{fill:url(#SVGID_1_);}
	.st2{fill:url(#SVGID_2_);}
	.st3{fill:#57595B;}
	.st4{fill:url(#SVGID_3_);}
	.st5{fill:url(#SVGID_4_);}
	.st6{fill:url(#SVGID_5_);}
	.st7{fill:url(#SVGID_6_);}
	.st8{fill:none;stroke:#FFFFFF;stroke-width:10;stroke-miterlimit:10;}
</style>
<linearGradient id="SVGID_1_" gradientUnits="userSpaceOnUse" x1="39.3048" y1="3.5" x2="39.3048" y2="86.7248">
	<stop  offset="0" style="stop-color:#FFBF00"/>
	<stop  offset="0.5578" style="stop-color:#FF5400"/>
	<stop  offset="1" style="stop-color:#FF006F"/>
</linearGradient>
<path class="st1" d="M15.7,67.4c-2.1,0-3.8,1.7-3.8,3.8c0,2.1,1.7,3.8,3.8,3.8c2.1,0,3.8-1.7,3.8-3.8C19.5,69.1,17.8,67.4,15.7,67.4
	z M24.5,15.4c2,0,3.6-1.6,3.6-3.6c0-2-1.6-3.6-3.6-3.6c-2,0-3.6,1.6-3.6,3.6C20.9,13.8,22.5,15.4,24.5,15.4z M24.5,74.9
	c-2,0-3.6,1.6-3.6,3.6c0,2,1.6,3.6,3.6,3.6c2,0,3.6-1.6,3.6-3.6C28.1,76.5,26.5,74.9,24.5,74.9z M13.3,61.7c0-2.2-1.8-3.9-3.9-3.9
	c-2.2,0-3.9,1.8-3.9,3.9s1.8,3.9,3.9,3.9C11.5,65.7,13.3,63.9,13.3,61.7z M35,10.7c1.8,0,3.3-1.5,3.3-3.3S36.8,4.2,35,4.2
	c-1.8,0-3.3,1.5-3.3,3.3S33.2,10.7,35,10.7z M9.3,32.5c2.2,0,4-1.8,4-4c0-2.2-1.8-4-4-4c-2.2,0-4,1.8-4,4
	C5.4,30.7,7.1,32.5,9.3,32.5z M10,50.8c0-2.2-1.8-4-4-4c-2.2,0-4,1.8-4,4s1.8,4,4,4C8.2,54.9,10,53.1,10,50.8z M15.7,22.9
	c2.1,0,3.8-1.7,3.8-3.8s-1.7-3.8-3.8-3.8c-2.1,0-3.8,1.7-3.8,3.8S13.6,22.9,15.7,22.9z M6,43.5c2.2,0,4-1.8,4-4c0-2.2-1.8-4-4-4
	s-4,1.8-4,4C2,41.7,3.8,43.5,6,43.5z M57.6,11c1.3,0,2.4-1.1,2.4-2.4c0-1.3-1.1-2.4-2.4-2.4s-2.4,1.1-2.4,2.4
	C55.2,9.9,56.2,11,57.6,11z M67.6,74.5c-0.9,0-1.7,0.8-1.7,1.7c0,0.9,0.8,1.7,1.7,1.7c0.9,0,1.7-0.8,1.7-1.7
	C69.3,75.3,68.6,74.5,67.6,74.5z M67.6,15.7c1,0,1.7-0.8,1.7-1.7c0-1-0.8-1.7-1.7-1.7c-1,0-1.7,0.8-1.7,1.7
	C65.9,15,66.6,15.7,67.6,15.7z M75.6,23c0.5,0,1-0.4,1-1c0-0.5-0.4-1-1-1c-0.5,0-1,0.4-1,1C74.7,22.6,75.1,23,75.6,23z M75.7,67.2
	c-0.5,0-1,0.4-1,1c0,0.5,0.4,1,1,1c0.5,0,1-0.4,1-1C76.6,67.6,76.2,67.2,75.7,67.2z M57.6,79.3c-1.3,0-2.3,1.1-2.3,2.3
	c0,1.3,1.1,2.3,2.3,2.3c1.3,0,2.3-1.1,2.3-2.3C59.9,80.3,58.9,79.3,57.6,79.3z M46.4,9.2c1.6,0,2.9-1.3,2.9-2.9S48,3.5,46.4,3.5
	c-1.6,0-2.9,1.3-2.9,2.9S44.8,9.2,46.4,9.2z M35.1,79.5c-1.8,0-3.3,1.5-3.3,3.3c0,1.8,1.5,3.3,3.3,3.3c1.8,0,3.3-1.5,3.3-3.3
	C38.3,81,36.9,79.5,35.1,79.5z M46.4,81c-1.6,0-2.9,1.3-2.9,2.9c0,1.6,1.3,2.9,2.9,2.9c1.6,0,2.9-1.3,2.9-2.9
	C49.3,82.3,48,81,46.4,81z"/>
<linearGradient id="SVGID_2_" gradientUnits="userSpaceOnUse" x1="14.4984" y1="45.112" x2="60.6941" y2="45.112">
	<stop  offset="0" style="stop-color:#9635EE"/>
	<stop  offset="1" style="stop-color:#0087FF"/>
</linearGradient>
<path class="st2" d="M22.6,45.1c0-2.2-1.8-4-4-4c-2.2,0-4,1.8-4,4c0,2.2,1.8,4,4,4C20.8,49.2,22.6,47.3,22.6,45.1z M27.8,61.3
	c-2,0-3.7,1.6-3.7,3.7c0,2,1.6,3.7,3.7,3.7c2,0,3.7-1.6,3.7-3.7C31.4,62.9,29.8,61.3,27.8,61.3z M21,52.1c-2.2,0-3.9,1.8-3.9,3.9
	c0,2.2,1.8,3.9,3.9,3.9c2.2,0,3.9-1.8,3.9-3.9C24.9,53.9,23.1,52.1,21,52.1z M21,38.1c2.2,0,3.9-1.8,3.9-3.9c0-2.2-1.8-3.9-3.9-3.9
	c-2.2,0-3.9,1.8-3.9,3.9C17,36.4,18.8,38.1,21,38.1z M59.3,25.4c0.8,0,1.4-0.6,1.4-1.4c0-0.8-0.6-1.4-1.4-1.4
	c-0.8,0-1.4,0.6-1.4,1.4C57.8,24.7,58.5,25.4,59.3,25.4z M27.8,21.6c-2,0-3.7,1.6-3.7,3.7s1.6,3.7,3.7,3.7c2,0,3.7-1.6,3.7-3.7
	S29.8,21.6,27.8,21.6z M37.7,66.9c-1.7,0-3.2,1.4-3.2,3.2c0,1.7,1.4,3.2,3.2,3.2s3.2-1.4,3.2-3.2C40.9,68.4,39.5,66.9,37.7,66.9z
	 M59.2,64.9c-0.8,0-1.4,0.6-1.4,1.4s0.6,1.4,1.4,1.4c0.8,0,1.4-0.6,1.4-1.4S60,64.9,59.2,64.9z M48.9,17.2c-1.4,0-2.5,1.1-2.5,2.5
	c0,1.4,1.1,2.5,2.5,2.5c1.4,0,2.5-1.1,2.5-2.5C51.4,18.3,50.3,17.2,48.9,17.2z M48.9,68.2c-1.3,0-2.4,1.1-2.4,2.4s1.1,2.4,2.4,2.4
	c1.3,0,2.4-1.1,2.4-2.4S50.3,68.2,48.9,68.2z M37.7,16.9c-1.8,0-3.2,1.4-3.2,3.2s1.4,3.2,3.2,3.2c1.8,0,3.2-1.4,3.2-3.2
	S39.5,16.9,37.7,16.9z"/>
<g>
	<g>
		<path class="st3" d="M32.3,41.8c0-3.2,2.4-5.5,5.8-5.5c1.9,0,3.5,0.7,4.5,2l-1.9,1.7c-0.7-0.8-1.5-1.2-2.5-1.2
			c-1.7,0-2.9,1.2-2.9,3c0,1.8,1.2,3,2.9,3c1,0,1.8-0.4,2.5-1.2l1.9,1.7c-1,1.3-2.6,2-4.5,2C34.8,47.3,32.3,45,32.3,41.8z"/>
		<path class="st3" d="M43,43c0-2.4,1.9-4.2,4.6-4.2c2.7,0,4.6,1.7,4.6,4.2c0,2.5-1.9,4.2-4.6,4.2C45,47.2,43,45.5,43,43z M49.3,43
			c0-1.2-0.7-1.9-1.7-1.9c-1,0-1.7,0.7-1.7,1.9c0,1.2,0.7,1.9,1.7,1.9C48.6,45,49.3,44.2,49.3,43z"/>
		<path class="st3" d="M62.2,36v11.1h-2.7v-0.8c-0.5,0.6-1.3,0.9-2.4,0.9c-2.2,0-4-1.6-4-4.2c0-2.6,1.8-4.2,4-4.2
			c0.9,0,1.7,0.3,2.2,0.8V36H62.2z M59.4,43c0-1.2-0.7-1.9-1.7-1.9c-1,0-1.7,0.7-1.7,1.9c0,1.2,0.7,1.9,1.7,1.9
			C58.6,45,59.4,44.2,59.4,43z"/>
		<path class="st3" d="M72.3,43.7h-5.9c0.2,0.8,0.9,1.3,2,1.3c0.8,0,1.3-0.2,1.9-0.7l1.5,1.6c-0.8,0.9-1.9,1.3-3.5,1.3
			c-2.9,0-4.8-1.8-4.8-4.2c0-2.4,1.9-4.2,4.5-4.2c2.4,0,4.3,1.5,4.3,4.2C72.3,43.2,72.3,43.5,72.3,43.7z M66.3,42.2h3.3
			c-0.1-0.9-0.8-1.4-1.7-1.4S66.5,41.4,66.3,42.2z"/>
		<path class="st3" d="M73,46.4l0.9-1.9c0.7,0.5,1.8,0.7,2.8,0.7c1,0,1.3-0.2,1.3-0.6c0-1.1-4.8,0.1-4.8-3.1c0-1.5,1.4-2.7,4-2.7
			c1.1,0,2.4,0.2,3.2,0.7l-0.9,1.9c-0.8-0.4-1.6-0.6-2.3-0.6c-1,0-1.3,0.3-1.3,0.6c0,1.1,4.8-0.1,4.8,3.1c0,1.5-1.4,2.7-4,2.7
			C75.2,47.2,73.8,46.9,73,46.4z"/>
		<path class="st3" d="M81.8,39h2.8v8.1h-2.8V39z"/>
		<path class="st3" d="M95.2,39v6.6c0,3.1-1.7,4.5-4.8,4.5c-1.6,0-3-0.4-4-1.1l1-2c0.7,0.5,1.8,0.9,2.7,0.9c1.5,0,2.2-0.7,2.2-2
			v-0.3c-0.6,0.6-1.4,1-2.4,1c-2.2,0-4-1.5-4-3.9c0-2.4,1.8-3.9,4-3.9c1.1,0,2,0.4,2.5,1.1v-1H95.2z M92.4,42.7c0-1-0.7-1.6-1.8-1.6
			c-1,0-1.8,0.7-1.8,1.6c0,1,0.8,1.7,1.8,1.7C91.7,44.4,92.4,43.7,92.4,42.7z"/>
		<path class="st3" d="M105.7,42.4v4.6h-2.8v-4.2c0-1.2-0.5-1.7-1.3-1.7c-0.9,0-1.6,0.6-1.6,1.9v3.9h-2.8V39h2.7v0.9
			c0.6-0.7,1.6-1,2.6-1C104.3,38.8,105.7,39.9,105.7,42.4z"/>
		<path class="st3" d="M111.3,46.1l1-2.2c0.9,0.6,2.2,1,3.5,1c1.2,0,1.7-0.3,1.7-0.9c0-1.7-6-0.4-6-4.3c0-1.9,1.5-3.4,4.6-3.4
			c1.4,0,2.8,0.3,3.8,0.9l-0.9,2.2c-1-0.5-2-0.8-2.9-0.8c-1.2,0-1.7,0.4-1.7,0.9c0,1.6,6,0.4,6,4.3c0,1.8-1.5,3.4-4.6,3.4
			C114,47.3,112.3,46.8,111.3,46.1z"/>
		<path class="st3" d="M121.1,43c0-2.4,1.9-4.2,4.6-4.2c2.7,0,4.6,1.7,4.6,4.2c0,2.5-1.9,4.2-4.6,4.2C123,47.2,121.1,45.5,121.1,43z
			 M127.4,43c0-1.2-0.7-1.9-1.7-1.9c-1,0-1.7,0.7-1.7,1.9c0,1.2,0.7,1.9,1.7,1.9C126.6,45,127.4,44.2,127.4,43z"/>
		<path class="st3" d="M131.6,36h2.8v11.1h-2.8V36z"/>
		<path class="st3" d="M144.8,39v8.1h-2.7v-0.9c-0.6,0.7-1.5,1-2.4,1c-2,0-3.4-1.1-3.4-3.7V39h2.8V43c0,1.3,0.5,1.8,1.3,1.8
			c0.8,0,1.5-0.6,1.5-1.9V39H144.8z"/>
		<path class="st3" d="M152.2,46.7c-0.5,0.3-1.2,0.5-2,0.5c-2.1,0-3.3-1-3.3-3.1v-2.7h-1.2v-2.1h1.2v-2.1h2.8v2.1h1.9v2.1h-1.9v2.7
			c0,0.6,0.3,0.9,0.9,0.9c0.3,0,0.6-0.1,0.9-0.3L152.2,46.7z"/>
		<path class="st3" d="M153,36.5c0-0.9,0.7-1.5,1.7-1.5c1,0,1.7,0.6,1.7,1.5c0,0.9-0.7,1.6-1.7,1.6C153.7,38.1,153,37.4,153,36.5z
			 M153.3,39h2.8v8.1h-2.8V39z"/>
		<path class="st3" d="M157.5,43c0-2.4,1.9-4.2,4.6-4.2c2.7,0,4.6,1.7,4.6,4.2c0,2.5-1.9,4.2-4.6,4.2
			C159.4,47.2,157.5,45.5,157.5,43z M163.8,43c0-1.2-0.7-1.9-1.7-1.9c-1,0-1.7,0.7-1.7,1.9c0,1.2,0.7,1.9,1.7,1.9
			C163.1,45,163.8,44.2,163.8,43z"/>
		<path class="st3" d="M176.6,42.4v4.6h-2.8v-4.2c0-1.2-0.5-1.7-1.3-1.7c-0.9,0-1.6,0.6-1.6,1.9v3.9H168V39h2.7v0.9
			c0.6-0.7,1.6-1,2.6-1C175.2,38.8,176.6,39.9,176.6,42.4z"/>
	</g>
</g>
<g>
	<path class="st3" d="M44.9,59.3v1.8h-1.2v-1.8l-2-3.3h1.3l1.4,2.3l1.4-2.3h1.2L44.9,59.3z"/>
	<path class="st3" d="M47.3,59.1c0-1.2,0.9-2,2.2-2s2.2,0.8,2.2,2s-0.9,2-2.2,2S47.3,60.3,47.3,59.1z M50.5,59.1
		c0-0.7-0.4-1.1-1-1.1s-1,0.4-1,1.1c0,0.7,0.4,1.1,1,1.1S50.5,59.8,50.5,59.1z"/>
	<path class="st3" d="M57.2,57.1v4h-1.1v-0.5c-0.3,0.3-0.7,0.5-1.2,0.5c-1,0-1.7-0.6-1.7-1.8v-2.2h1.2v2.1c0,0.7,0.3,1,0.8,1
		c0.5,0,0.9-0.3,0.9-1.1v-2H57.2z"/>
	<path class="st3" d="M61.9,55.9h1.2v5.2h-1.2V55.9z"/>
	<path class="st3" d="M71.7,58.8v2.3h-1.2V59c0-0.6-0.3-0.9-0.8-0.9c-0.5,0-0.9,0.3-0.9,1v2h-1.2V59c0-0.6-0.3-0.9-0.8-0.9
		c-0.5,0-0.9,0.3-0.9,1v2H65v-4h1.1v0.5c0.3-0.3,0.7-0.5,1.2-0.5c0.6,0,1,0.2,1.3,0.6c0.3-0.4,0.8-0.6,1.4-0.6
		C71,57.1,71.7,57.6,71.7,58.8z"/>
	<path class="st3" d="M77,58.8v2.3h-1.1v-0.5c-0.2,0.4-0.6,0.6-1.2,0.6c-0.9,0-1.5-0.5-1.5-1.2c0-0.7,0.5-1.2,1.7-1.2h0.9
		c0-0.5-0.3-0.8-0.9-0.8c-0.4,0-0.9,0.1-1.1,0.4l-0.4-0.8c0.4-0.3,1.1-0.5,1.7-0.5C76.2,57.1,77,57.6,77,58.8z M75.8,59.8v-0.4H75
		c-0.5,0-0.7,0.2-0.7,0.5c0,0.3,0.2,0.5,0.6,0.5C75.3,60.4,75.7,60.2,75.8,59.8z"/>
	<path class="st3" d="M82.9,57.1v3.3c0,1.5-0.8,2.2-2.2,2.2c-0.8,0-1.5-0.2-1.9-0.5l0.5-0.8c0.3,0.3,0.9,0.5,1.4,0.5
		c0.8,0,1.2-0.4,1.2-1.1v-0.2c-0.3,0.3-0.7,0.5-1.3,0.5c-1.1,0-2-0.8-2-1.9s0.9-1.9,2-1.9c0.6,0,1,0.2,1.3,0.6v-0.5H82.9z M81.7,59
		c0-0.6-0.4-1-1-1c-0.6,0-1,0.4-1,1c0,0.6,0.4,1,1,1C81.3,59.9,81.7,59.6,81.7,59z"/>
	<path class="st3" d="M84.5,55.9c0-0.4,0.3-0.6,0.7-0.6s0.7,0.3,0.7,0.6c0,0.4-0.3,0.7-0.7,0.7S84.5,56.3,84.5,55.9z M84.7,57.1h1.2
		v4h-1.2V57.1z"/>
	<path class="st3" d="M91.7,58.8v2.3h-1.2V59c0-0.6-0.3-0.9-0.8-0.9c-0.6,0-1,0.3-1,1.1v2h-1.2v-4h1.1v0.5c0.3-0.3,0.8-0.5,1.3-0.5
		C91,57.1,91.7,57.6,91.7,58.8z"/>
	<path class="st3" d="M97.4,59.4h-3c0.1,0.5,0.5,0.8,1.1,0.8c0.4,0,0.7-0.1,1-0.4l0.6,0.7c-0.4,0.4-0.9,0.6-1.6,0.6
		c-1.4,0-2.3-0.9-2.3-2c0-1.2,0.9-2,2.1-2c1.2,0,2.1,0.8,2.1,2.1C97.4,59.2,97.4,59.3,97.4,59.4z M94.4,58.8h2
		c-0.1-0.5-0.5-0.8-1-0.8C94.8,57.9,94.5,58.2,94.4,58.8z"/>
	<path class="st3" d="M101.8,55.9h1.2v5.2h-1.2V55.9z"/>
	<path class="st3" d="M107.5,60.9c-0.2,0.2-0.6,0.3-0.9,0.3c-0.9,0-1.5-0.5-1.5-1.4v-1.6h-0.6v-0.9h0.6v-1h1.2v1h1v0.9h-1v1.6
		c0,0.3,0.2,0.5,0.5,0.5c0.2,0,0.3-0.1,0.5-0.1L107.5,60.9z"/>
	<path class="st3" d="M110.1,60.4c0,0.2,0,0.3-0.2,0.7l-0.4,1.1h-0.7l0.3-1.2c-0.2-0.1-0.4-0.3-0.4-0.6c0-0.4,0.3-0.7,0.7-0.7
		C109.8,59.7,110.1,60,110.1,60.4z"/>
	<path class="st3" d="M122.3,55.9l-1.7,5.2h-1.3l-1.1-3.5l-1.2,3.5h-1.3l-1.7-5.2h1.2l1.2,3.6l1.2-3.6h1.1l1.2,3.7l1.2-3.7H122.3z"
		/>
	<path class="st3" d="M127.2,59.4h-3c0.1,0.5,0.5,0.8,1.1,0.8c0.4,0,0.7-0.1,1-0.4l0.6,0.7c-0.4,0.4-0.9,0.6-1.6,0.6
		c-1.4,0-2.3-0.9-2.3-2c0-1.2,0.9-2,2.1-2c1.2,0,2.1,0.8,2.1,2.1C127.2,59.2,127.2,59.3,127.2,59.4z M124.2,58.8h2
		c-0.1-0.5-0.5-0.8-1-0.8C124.7,57.9,124.3,58.2,124.2,58.8z"/>
	<path class="st3" d="M131.3,58.5c0-1.6,1.2-2.7,2.8-2.7c0.9,0,1.6,0.3,2.1,0.9l-0.8,0.7c-0.3-0.4-0.8-0.6-1.3-0.6
		c-1,0-1.7,0.7-1.7,1.7s0.7,1.7,1.7,1.7c0.5,0,1-0.2,1.3-0.6l0.8,0.7c-0.5,0.6-1.2,0.9-2.1,0.9C132.5,61.2,131.3,60.1,131.3,58.5z"
		/>
	<path class="st3" d="M140.2,57.1v1.1c-0.1,0-0.2,0-0.3,0c-0.6,0-1.1,0.3-1.1,1.1v1.9h-1.2v-4h1.1v0.5
		C139.1,57.3,139.6,57.1,140.2,57.1z"/>
	<path class="st3" d="M145.5,59.4h-3c0.1,0.5,0.5,0.8,1.1,0.8c0.4,0,0.7-0.1,1-0.4l0.6,0.7c-0.4,0.4-0.9,0.6-1.6,0.6
		c-1.4,0-2.3-0.9-2.3-2c0-1.2,0.9-2,2.1-2c1.2,0,2.1,0.8,2.1,2.1C145.5,59.2,145.5,59.3,145.5,59.4z M142.4,58.8h2
		c-0.1-0.5-0.5-0.8-1-0.8C142.9,57.9,142.5,58.2,142.4,58.8z"/>
	<path class="st3" d="M150.4,58.8v2.3h-1.1v-0.5c-0.2,0.4-0.6,0.6-1.2,0.6c-0.9,0-1.5-0.5-1.5-1.2c0-0.7,0.5-1.2,1.7-1.2h0.9
		c0-0.5-0.3-0.8-0.9-0.8c-0.4,0-0.9,0.1-1.1,0.4l-0.4-0.8c0.4-0.3,1.1-0.5,1.7-0.5C149.7,57.1,150.4,57.6,150.4,58.8z M149.2,59.8
		v-0.4h-0.8c-0.5,0-0.7,0.2-0.7,0.5c0,0.3,0.2,0.5,0.7,0.5C148.8,60.4,149.1,60.2,149.2,59.8z"/>
	<path class="st3" d="M154.7,60.9c-0.2,0.2-0.6,0.3-0.9,0.3c-0.9,0-1.5-0.5-1.5-1.4v-1.6h-0.6v-0.9h0.6v-1h1.2v1h1v0.9h-1v1.6
		c0,0.3,0.2,0.5,0.5,0.5c0.2,0,0.3-0.1,0.5-0.1L154.7,60.9z"/>
	<path class="st3" d="M159.9,59.4h-3c0.1,0.5,0.5,0.8,1.1,0.8c0.4,0,0.7-0.1,1-0.4l0.6,0.7c-0.4,0.4-0.9,0.6-1.6,0.6
		c-1.4,0-2.3-0.9-2.3-2c0-1.2,0.9-2,2.1-2c1.2,0,2.1,0.8,2.1,2.1C159.9,59.2,159.9,59.3,159.9,59.4z M156.8,58.8h2
		c-0.1-0.5-0.5-0.8-1-0.8C157.3,57.9,156.9,58.2,156.8,58.8z"/>
	<path class="st3" d="M165.4,55.6v5.5h-1.1v-0.5c-0.3,0.3-0.7,0.5-1.2,0.5c-1.1,0-2-0.8-2-2s0.9-2,2-2c0.5,0,0.9,0.2,1.2,0.5v-1.9
		H165.4z M164.3,59.1c0-0.7-0.4-1.1-1-1.1c-0.6,0-1,0.4-1,1.1c0,0.7,0.4,1.1,1,1.1C163.9,60.2,164.3,59.8,164.3,59.1z"/>
	<path class="st3" d="M170.1,55.9h1.2v5.2h-1.2V55.9z"/>
	<path class="st3" d="M175.8,60.9c-0.2,0.2-0.6,0.3-0.9,0.3c-0.9,0-1.5-0.5-1.5-1.4v-1.6h-0.6v-0.9h0.6v-1h1.2v1h1v0.9h-1v1.6
		c0,0.3,0.2,0.5,0.5,0.5c0.2,0,0.3-0.1,0.5-0.1L175.8,60.9z"/>
</g>
<linearGradient id="SVGID_3_" gradientUnits="userSpaceOnUse" x1="81.5235" y1="36.5414" x2="85.0011" y2="36.5414">
	<stop  offset="0" style="stop-color:#FFBF00"/>
	<stop  offset="0.5578" style="stop-color:#FF5400"/>
	<stop  offset="1" style="stop-color:#FF006F"/>
</linearGradient>
<path class="st4" d="M81.5,36.5c0-0.9,0.7-1.5,1.7-1.5s1.7,0.6,1.7,1.5c0,0.9-0.7,1.6-1.7,1.6S81.5,37.4,81.5,36.5z"/>
</svg>
